#N canvas 150 430 450 300 10;
#X obj 71 41 netreceive -u -b 5005;
#X obj 71 88 oscparse;
#X obj 76 136 list trim;
#X obj 73 177 route weight distance image;
#X floatatom 67 232 5 0 0 0 - - -;
#X floatatom 124 231 5 0 0 0 - - -;
#X connect 0 0 1 0;
#X connect 1 0 2 0;
#X connect 2 0 3 0;
#X connect 3 0 4 0;
#X connect 3 1 5 0;
